<?xml version="1.0" standalone="no"?>
<!DOCTYPE svg PUBLIC "-//W3C//DTD SVG 20010904//EN"
 "http://www.w3.org/TR/2001/REC-SVG-20010904/DTD/svg10.dtd">
<svg version="1.0" xmlns="http://www.w3.org/2000/svg"
 width="260.000000pt" height="260.000000pt" viewBox="0 0 260.000000 260.000000"
 preserveAspectRatio="xMidYMid meet">
<metadata>
Created by potrace 1.11, written by Peter Selinger 2001-2013
</metadata>
<g transform="translate(0.000000,260.000000) scale(0.100000,-0.100000)"
fill="#000000" stroke="none">
<path d="M0 1940 l0 -660 1300 0 1300 0 0 660 0 660 -1300 0 -1300 0 0 -660z
m490 20 c0 -298 3 -316 60 -345 61 -32 146 -9 177 47 16 29 18 65 21 301 l4
267 40 0 40 0 -4 -277 c-3 -308 -4 -311 -72 -370 -47 -42 -97 -57 -167 -50
-79 7 -137 41 -169 97 -25 45 -25 47 -28 323 l-3 277 50 0 51 0 0 -270z m950
235 l0 -35 -165 0 -165 0 0 -125 0 -125 145 0 145 0 0 -35 0 -35 -145 0 -145
0 0 -150 0 -150 -45 0 -45 0 0 345 0 345 210 0 210 0 0 -35z m489 -298 c62
-182 116 -338 118 -344 4 -9 -9 -13 -45 -13 l-51 0 -32 100 -33 100 -127 0
-128 0 -32 -100 -33 -100 -38 0 c-21 0 -38 4 -38 9 0 7 73 223 186 549 l46
132 47 0 46 0 114 -333z"/>
<path d="M1708 1961 c-27 -75 -48 -140 -48 -144 0 -4 45 -7 99 -7 l100 0 -46
138 c-25 75 -48 140 -52 144 -3 4 -27 -55 -53 -131z"/>
<path d="M386 955 c-105 -37 -171 -143 -146 -233 13 -49 35 -69 145 -132 106
-61 123 -75 130 -115 7 -34 -22 -85 -68 -119 -40 -29 -159 -29 -239 1 -32 12
-60 18 -62 15 -2 -4 -6 -24 -10 -44 l-7 -36 77 -18 c224 -49 404 50 404 225 0
66 -24 94 -136 156 -124 70 -144 89 -144 134 0 96 96 133 248 95 35 -9 65 -14
66 -13 2 2 6 23 10 45 l6 41 -38 7 c-65 10 -196 6 -236 -9z"/>
<path d="M776 898 c-5 -50 -46 -608 -46 -624 0 -2 24 -4 53 -4 l53 0 80 193
79 192 3 -193 2 -193 52 3 52 3 113 325 c62 179 115 333 118 343 5 14 0 17
-28 17 -40 0 -26 32 -163 -365 l-69 -200 -3 193 -2 193 -46 -3 -46 -3 -76
-187 c-42 -103 -78 -185 -80 -183 -4 4 25 444 34 513 l5 42 -40 0 -39 0 -6
-62z"/>
<path d="M1426 944 c-3 -9 -6 -24 -6 -35 0 -17 8 -19 81 -19 65 0 80 -3 76
-14 -3 -8 -29 -131 -58 -275 l-52 -261 -83 0 c-76 0 -84 -2 -84 -19 0 -11 -3
-26 -6 -35 -5 -14 17 -16 205 -16 162 0 211 3 211 13 0 6 3 22 6 35 6 21 4 22
-75 22 -44 0 -81 2 -81 4 0 5 83 414 100 493 l11 52 82 3 81 3 7 33 6 32 -207
0 c-180 0 -209 -2 -214 -16z"/>
<path d="M1965 938 c-7 -31 -135 -660 -135 -665 0 -1 15 -3 33 -3 l32 0 54
268 c30 147 57 278 60 291 4 15 16 -44 29 -150 32 -248 27 -231 69 -227 36 3
36 4 143 205 58 112 108 205 111 207 2 3 -21 -122 -53 -277 -31 -155 -57 -290
-58 -299 0 -14 8 -18 34 -18 34 0 35 1 45 53 6 28 37 184 70 345 l58 292 -58
0 -57 0 -103 -195 c-56 -107 -104 -194 -105 -192 -2 1 -12 72 -23 157 -12 85
-23 172 -27 193 l-6 37 -54 0 c-47 0 -54 -3 -59 -22z"/>
</g>
</svg>
