<?xml version="1.0" standalone="no"?>
<!DOCTYPE svg PUBLIC "-//W3C//DTD SVG 20010904//EN"
 "http://www.w3.org/TR/2001/REC-SVG-20010904/DTD/svg10.dtd">
<svg version="1.0" xmlns="http://www.w3.org/2000/svg"
 width="260.000000pt" height="260.000000pt" viewBox="0 0 260.000000 260.000000"
 preserveAspectRatio="xMidYMid meet">
<metadata>
Created by potrace 1.11, written by Peter Selinger 2001-2013
</metadata>
<g transform="translate(0.000000,260.000000) scale(0.100000,-0.100000)"
fill="#000000" stroke="none">
<path d="M0 1940 l0 -660 1300 0 1300 0 0 660 0 660 -1300 0 -1300 0 0 -660z
m640 205 l0 -35 -90 0 -90 0 -2 -267 -3 -268 -40 0 -40 0 -3 268 -2 267 -90 0
-90 0 0 35 0 35 225 0 225 0 0 -35z m170 -270 l0 -305 -40 0 -40 0 0 305 0
305 40 0 40 0 0 -305z m293 288 c8 -10 56 -119 105 -243 l90 -225 22 50 c12
28 53 127 92 220 92 223 86 215 153 215 48 0 55 -3 60 -22 3 -13 4 -149 3
-303 l-3 -280 -37 -3 -38 -3 -2 265 -3 266 -106 -262 -107 -263 -38 0 -38 0
-100 260 -101 259 -5 -259 -5 -260 -37 -3 -38 -3 0 299 c0 164 3 302 7 305 3
4 30 7 58 7 37 0 56 -5 68 -17z m1019 0 c12 -50 5 -53 -128 -53 l-124 0 0 -90
0 -90 110 0 110 0 0 -35 0 -35 -110 0 -110 0 0 -110 0 -109 128 -3 127 -3 0
-30 0 -30 -165 0 -165 0 -3 290 c-1 159 0 295 3 302 3 10 45 13 164 13 143 0
159 -2 163 -17z"/>
<path d="M1891 988 c-4 -13 -16 -66 -26 -118 -10 -52 -19 -97 -21 -99 -1 -2
-17 7 -34 19 -73 52 -180 29 -240 -53 -61 -84 -87 -233 -55 -315 36 -88 152
-95 239 -14 l29 27 -6 -38 c-6 -35 -5 -37 23 -37 16 0 32 4 35 10 7 12 125
597 125 623 0 28 -58 23 -69 -5z m-96 -270 l35 -33 -15 -65 c-29 -119 -98
-200 -172 -200 -49 0 -66 33 -61 118 9 171 121 265 213 180z"/>
<path d="M450 971 c-154 -51 -253 -205 -253 -397 0 -134 62 -210 181 -221 108
-10 212 38 212 98 0 24 -11 24 -54 -2 -21 -12 -60 -23 -93 -26 -107 -8 -163
46 -163 157 0 138 74 278 167 316 61 26 135 14 181 -29 28 -26 45 -13 40 34
-2 25 -11 38 -36 52 -36 21 -141 32 -182 18z"/>
<path d="M822 799 c-79 -40 -142 -168 -142 -291 0 -71 19 -117 59 -141 56 -33
130 -16 190 44 l33 33 -7 -43 -7 -42 33 3 33 3 43 210 c23 116 42 216 43 223
0 9 -11 12 -32 10 -25 -2 -34 -8 -36 -25 -4 -27 -14 -29 -33 -7 -38 46 -110
56 -177 23z m155 -81 c22 -20 24 -28 19 -73 -19 -153 -147 -274 -217 -204 -48
48 0 255 69 294 36 21 98 13 129 -17z"/>
<path d="M1374 801 c-17 -10 -41 -32 -53 -47 l-22 -29 6 43 c7 42 7 42 -24 42
-24 0 -32 -5 -36 -22 -30 -127 -82 -415 -75 -421 4 -5 20 -7 36 -5 28 3 29 6
51 118 38 188 99 280 177 266 35 -7 46 3 46 44 0 34 -58 40 -106 11z"/>
<path d="M2120 809 c-37 -15 -78 -58 -91 -96 -21 -63 5 -110 81 -148 48 -24
80 -55 80 -78 0 -10 -13 -32 -29 -48 -36 -36 -92 -39 -152 -9 -43 23 -54 15
-47 -32 4 -32 65 -51 140 -45 101 9 158 63 158 152 0 39 -5 52 -31 75 -16 16
-40 32 -52 36 -76 23 -101 84 -51 123 32 25 71 27 121 6 42 -18 43 -17 46 21
2 24 -3 30 -33 41 -42 14 -106 15 -140 2z"/>
</g>
</svg>
